HIERARCHY
ROOT Hips
{
	OFFSET 0.000000 0.000000 0.000000
	CHANNELS 6 Xposition Yposition Zposition Zrotation Yrotation Xrotation 
	JOINT LHipJoint
	{
		OFFSET 0.000000 0.000000 0.000000
		CHANNELS 3 Zrotation Yrotation Xrotation
		JOINT LeftUpLeg
		{
			OFFSET 1.363060 -1.794630 0.839290
			CHANNELS 3 Zrotation Yrotation Xrotation
			JOINT LeftLeg
			{
				OFFSET 2.448110 -6.726130 0.000000
				CHANNELS 3 Zrotation Yrotation Xrotation
				JOINT LeftFoot
				{
					OFFSET 2.562200 -7.039590 0.000000
					CHANNELS 3 Zrotation Yrotation Xrotation
					JOINT LeftToeBase
					{
						OFFSET 0.157640 -0.433110 2.322550
						CHANNELS 3 Zrotation Yrotation Xrotation
						End Site
						{
							OFFSET 0.000000 0.000000 0.000000
						}
					}
				}
			}
		}
	}
	JOINT RHipJoint
	{
		OFFSET 0.000000 0.000000 0.000000
		CHANNELS 3 Zrotation Yrotation Xrotation
		JOINT RightUpLeg
		{
			OFFSET -1.305520 -1.794630 0.839290
			CHANNELS 3 Zrotation Yrotation Xrotation
			JOINT RightLeg
			{
				OFFSET -2.542530 -6.985550 0.000000
				CHANNELS 3 Zrotation Yrotation Xrotation
				JOINT RightFoot
				{
					OFFSET -2.568260 -7.056230 0.000000
					CHANNELS 3 Zrotation Yrotation Xrotation
					JOINT RightToeBase
					{
						OFFSET -0.164730 -0.452590 2.363150
						CHANNELS 3 Zrotation Yrotation Xrotation
						End Site
						{
							OFFSET 0.000000 0.000000 0.000000
						}
					}
				}
			}
		}
	}
	JOINT LowerBack
	{
		OFFSET 0.000000 0.000000 0.000000
		CHANNELS 3 Zrotation Yrotation Xrotation
		JOINT Spine
		{
			OFFSET 0.028270 2.035590 -0.193380
			CHANNELS 3 Zrotation Yrotation Xrotation
			JOINT Spine1
			{
				OFFSET 0.056720 2.048850 -0.042750
				CHANNELS 3 Zrotation Yrotation Xrotation
				JOINT Neck
				{
					OFFSET 0.000000 0.000000 0.000000
					CHANNELS 3 Zrotation Yrotation Xrotation
					JOINT Neck1
					{
						OFFSET -0.054170 1.746240 0.172020
						CHANNELS 3 Zrotation Yrotation Xrotation
						JOINT Head
						{
							OFFSET 0.104070 1.761360 -0.123970
							CHANNELS 3 Zrotation Yrotation Xrotation
							End Site
							{
								OFFSET 0.000000 0.000000 0.000000
							}
						}
					}
				}
				JOINT LeftShoulder
				{
					OFFSET 0.000000 0.000000 0.000000
					CHANNELS 3 Zrotation Yrotation Xrotation
					JOINT LeftArm
					{
						OFFSET 3.362410 1.200890 -0.311210
						CHANNELS 3 Zrotation Yrotation Xrotation
						JOINT LeftForeArm
						{
							OFFSET 4.983000 -0.000000 -0.000000
							CHANNELS 3 Zrotation Yrotation Xrotation
							JOINT LeftHand
							{
								OFFSET 3.483560 -0.000000 -0.000000
								CHANNELS 3 Zrotation Yrotation Xrotation
								JOINT LeftFingerBase
								{
									OFFSET 0.000000 0.000000 0.000000
									CHANNELS 3 Zrotation Yrotation Xrotation
									JOINT LeftHandIndex1
									{
										OFFSET 0.715260 -0.000000 -0.000000
										CHANNELS 3 Zrotation Yrotation Xrotation
										End Site
										{
											OFFSET 0.000000 0.000000 0.000000
										}
									}
								}
								JOINT LThumb
								{
									OFFSET 0.000000 0.000000 0.000000
									CHANNELS 3 Zrotation Yrotation Xrotation
									End Site
									{
										OFFSET 0.000000 0.000000 0.000000
									}
								}
							}
						}
					}
				}
				JOINT RightShoulder
				{
					OFFSET 0.000000 0.000000 0.000000
					CHANNELS 3 Zrotation Yrotation Xrotation
					JOINT RightArm
					{
						OFFSET -3.136600 1.374050 -0.404650
						CHANNELS 3 Zrotation Yrotation Xrotation
						JOINT RightForeArm
						{
							OFFSET -5.241900 -0.000000 -0.000000
							CHANNELS 3 Zrotation Yrotation Xrotation
							JOINT RightHand
							{
								OFFSET -3.444170 -0.000000 -0.000000
								CHANNELS 3 Zrotation Yrotation Xrotation
								JOINT RightFingerBase
								{
									OFFSET 0.000000 0.000000 0.000000
									CHANNELS 3 Zrotation Yrotation Xrotation
									JOINT RightHandIndex1
									{
										OFFSET -0.622530 -0.000000 -0.000000
										CHANNELS 3 Zrotation Yrotation Xrotation
										End Site
										{
											OFFSET 0.000000 0.000000 0.000000
										}
									}
								}
								JOINT RThumb
								{
									OFFSET 0.000000 0.000000 0.000000
									CHANNELS 3 Zrotation Yrotation Xrotation
									End Site
									{
										OFFSET 0.000000 0.000000 0.000000
									}
								}
							}
						}
					}
				}
			}
		}
	}
}
MOTION
Frames: 6
Frame Time: 0.008333
1.537090 18.140517 1.696565 0.403544 -35.356947 5.129886 -3.956212 5.475739 6.585252 -11.500289 -5.594897 -7.573818 0.057309 6.028415 20.910096 -3.936280 16.575119 -16.079806 0.215300 -2.987000 -8.242500 -1.438244 -6.143594 3.874631 16.996417 26.914749 -8.584638 -2.180866 -7.154174 26.568537 2.318063 -9.286909 -6.945381 -0.009600 0.633700 -1.741300 2.237819 0.657848 -5.758956 -1.537348 -0.110367 11.017936 2.942712 0.424171 -6.521875 -7.211813 -1.788776 -15.190430 -0.482470 -0.968640 12.664721 1.711000 -0.662700 4.817000 -8.175993 -0.753149 -0.931934 -77.404526 1.798772 34.296619 14.972364 -22.741845 -3.365876 -0.818832 -1.284434 7.598655 22.625852 20.526055 9.121300 -7.125000 0.000000 0.000000 -5.815900 53.538100 -1.224400 10.217311 0.933586 -1.622556 74.011507 -4.668306 29.019470 -10.269164 11.520239 -1.296241 1.221813 0.481837 11.776194 -16.827055 -2.230537 0.959100 7.125000 0.000000 0.000000 7.048600 -33.039100 2.079300 
1.515308 18.136238 1.699191 0.707721 -35.184689 4.732720 -3.971945 5.478754 6.599618 -11.628229 -5.489832 -7.414364 0.088574 6.066104 21.045949 -3.859703 16.290408 -15.835698 0.208900 -2.942400 -8.118400 -1.476171 -6.144618 3.883397 16.926624 26.587862 -8.514064 -2.221662 -7.235664 26.807197 2.289590 -9.225922 -7.049510 -0.014300 0.772400 -2.122800 2.181839 0.682721 -5.801165 -1.951745 -0.081711 11.082530 3.035377 0.431831 -6.474614 -7.302847 -1.785181 -14.872380 -0.158998 -1.029196 12.335750 1.795000 -0.670900 4.708900 -8.118945 -0.770379 -0.940309 -77.400160 1.664337 34.697965 15.131836 -22.958847 -3.439787 -0.811584 -1.292456 7.421849 22.630822 20.653364 9.173400 -7.125000 0.000000 0.000000 -5.858400 53.677500 -1.253300 10.272488 0.934334 -1.639332 74.127348 -4.676041 28.977080 -10.185737 11.367777 -1.272012 1.216191 0.423418 11.797070 -16.799373 -1.740460 0.781100 7.125000 0.000000 0.000000 7.014200 -32.467500 2.166500 
1.490900 18.131473 1.704442 0.925549 -35.148551 4.364010 -3.975569 5.488658 6.617559 -11.710816 -5.370495 -7.238402 0.125036 6.114492 21.204712 -3.832936 16.160724 -15.612685 0.227000 -3.067000 -8.465400 -1.506912 -6.147020 3.890562 16.933502 26.314132 -8.359245 -2.253173 -7.298317 26.998457 2.225346 -9.045430 -7.097927 -0.014100 0.767900 -2.110500 2.096056 0.766036 -5.859889 -2.202055 0.027427 11.156742 3.111930 0.482542 -6.426467 -7.297623 -1.808911 -14.708072 -0.087440 -1.086589 12.148243 1.807900 -0.692800 4.652700 -8.081810 -0.772913 -0.946702 -77.439053 1.545808 35.053857 15.287758 -23.169495 -3.513195 -0.793117 -1.309470 7.572034 22.241880 21.045798 9.150700 -7.125000 0.000000 0.000000 -6.423000 54.026700 -1.429700 10.281940 0.931629 -1.654641 74.143962 -4.794053 29.509554 -10.187797 11.384911 -1.280838 1.209962 0.419883 10.861557 -16.776505 -1.404423 0.664900 7.125000 0.000000 0.000000 6.995800 -32.093900 2.224200 
1.467465 18.128750 1.709304 0.958706 -35.044689 4.067170 -3.953747 5.509264 6.638460 -11.628306 -5.261156 -7.081095 0.165447 6.178950 21.383650 -3.792051 15.961566 -15.314441 0.244600 -3.182300 -8.786800 -1.527784 -6.148373 3.893426 17.144168 26.120036 -8.083325 -2.286993 -7.351167 27.186157 2.213215 -9.033372 -7.227138 -0.013000 0.735400 -2.021000 2.104829 0.809146 -5.854928 -2.268045 0.088142 11.166499 3.106874 0.508156 -6.413379 -7.334748 -1.815602 -14.444690 -0.070886 -1.111540 11.951905 1.813500 -0.703300 4.578500 -8.068782 -0.774692 -0.953015 -77.497352 1.464250 35.183128 15.439495 -23.374279 -3.586455 -0.746060 -1.344313 8.240636 20.976500 21.879320 8.879900 -7.125000 0.000000 0.000000 -8.122100 54.669500 -1.938900 10.284155 0.930871 -1.661714 74.092839 -4.879758 30.376261 -10.124545 11.295235 -1.267419 1.253260 0.401400 9.627237 -17.197276 -0.996282 0.537500 7.125000 0.000000 0.000000 6.574500 -31.643100 2.160400 
1.449281 18.127875 1.711832 0.944177 -34.753216 3.732785 -3.923384 5.538284 6.665055 -11.483354 -5.131874 -6.928258 0.213287 6.253136 21.575574 -3.768910 15.762604 -14.818304 0.284500 -3.430500 -9.479800 -1.548090 -6.148003 3.900948 17.427678 25.849771 -7.741058 -2.319294 -7.397603 27.360730 2.245580 -9.169480 -7.444137 -0.013100 0.739600 -2.032500 2.246722 0.768422 -5.746736 -2.370802 0.042192 11.206986 3.031791 0.474940 -6.461872 -7.388188 -1.806528 -14.167996 -0.024121 -1.118650 11.708968 1.826900 -0.702400 4.488300 -8.046443 -0.780725 -0.961213 -77.496449 1.411020 36.043948 15.553696 -23.540784 -3.644654 -0.758109 -1.343196 6.733462 21.883129 21.385315 9.120100 -7.125000 0.000000 0.000000 -6.940300 54.328900 -1.596900 10.294623 0.930043 -1.669732 74.017352 -4.885202 31.282222 -10.068268 11.216949 -1.258651 1.242657 0.420847 8.802491 -17.035106 -0.955584 0.519100 7.125000 0.000000 0.000000 6.704300 -31.597900 2.210900 
1.425846 18.127486 1.715235 1.075725 -34.491751 3.299469 -3.905177 5.561740 6.698222 -11.455442 -4.851696 -6.778753 0.271923 6.329892 21.803441 -3.727051 15.501513 -14.258383 0.330200 -3.692900 -10.214200 -1.575467 -6.156972 3.916476 17.575423 25.576834 -7.380066 -2.347689 -7.445373 27.524868 2.246590 -9.211254 -7.664891 -0.012000 0.707300 -1.943900 2.270917 0.726163 -5.777923 -2.615393 -0.015704 11.347454 3.042893 0.436423 -6.408101 -7.441633 -1.785470 -13.846835 0.145206 -1.133588 11.401297 1.869700 -0.698700 4.383700 -8.002985 -0.808840 -0.973644 -77.462479 1.245038 36.550279 15.643575 -23.663098 -3.689782 -0.758273 -1.340418 6.172838 22.141200 21.168449 9.155700 -7.125000 0.000000 0.000000 -6.577900 54.146800 -1.483700 10.317867 0.950626 -1.679259 73.943836 -4.769919 32.144981 -10.004840 11.121405 -1.251563 1.179720 0.438693 8.352679 -16.359974 -0.951211 0.494800 7.125000 0.000000 0.000000 7.289400 -31.576400 2.410300 
